<mxfile host="Electron" agent="Mozilla/5.0 (Windows NT 10.0; Win64; x64) AppleWebKit/537.36 (KHTML, like Gecko) draw.io/27.0.2 Chrome/134.0.6998.205 Electron/35.3.0 Safari/537.36" version="27.0.2">
  <diagram name="Page-1" id="c7488fd3-1785-93aa-aadb-54a6760d102a">
    <mxGraphModel dx="872" dy="537" grid="1" gridSize="10" guides="1" tooltips="1" connect="1" arrows="1" fold="1" page="1" pageScale="1" pageWidth="1100" pageHeight="850" background="none" math="0" shadow="0">
      <root>
        <mxCell id="0" />
        <mxCell id="1" parent="0" />
        <mxCell id="2b4e8129b02d487f-1" value="&lt;font style=&quot;font-size: 8.5px;&quot;&gt;Fluxograma de Requisição de Serviço&lt;/font&gt;" style="swimlane;html=1;childLayout=stackLayout;horizontal=1;startSize=20;horizontalStack=0;rounded=0;shadow=0;labelBackgroundColor=none;strokeWidth=1;fontFamily=Verdana;fontSize=8;align=center;" parent="1" vertex="1">
          <mxGeometry x="180" y="70" width="680" height="720" as="geometry" />
        </mxCell>
        <mxCell id="2b4e8129b02d487f-2" value="&lt;font style=&quot;font-size: 10px;&quot;&gt;Usuário&lt;/font&gt;" style="swimlane;html=1;startSize=20;horizontal=0;" parent="2b4e8129b02d487f-1" vertex="1">
          <mxGeometry y="20" width="680" height="150" as="geometry" />
        </mxCell>
        <mxCell id="Rq8yyQeP4w4pOeJSHKfv-61" style="edgeStyle=orthogonalEdgeStyle;rounded=0;orthogonalLoop=1;jettySize=auto;html=1;exitX=1;exitY=0.5;exitDx=0;exitDy=0;entryX=0.5;entryY=0;entryDx=0;entryDy=0;" parent="2b4e8129b02d487f-2" source="2b4e8129b02d487f-5" target="2b4e8129b02d487f-6" edge="1">
          <mxGeometry relative="1" as="geometry" />
        </mxCell>
        <mxCell id="2b4e8129b02d487f-5" value="" style="ellipse;whiteSpace=wrap;html=1;rounded=0;shadow=0;labelBackgroundColor=none;strokeWidth=1;fontFamily=Verdana;fontSize=8;align=center;" parent="2b4e8129b02d487f-2" vertex="1">
          <mxGeometry x="30" y="23" width="30" height="30" as="geometry" />
        </mxCell>
        <mxCell id="2b4e8129b02d487f-6" value="&lt;font style=&quot;font-size: 8.5px;&quot;&gt;Solicitar serviço&lt;/font&gt;" style="rounded=1;whiteSpace=wrap;html=1;shadow=0;labelBackgroundColor=none;strokeWidth=1;fontFamily=Verdana;fontSize=9;align=center;" parent="2b4e8129b02d487f-2" vertex="1">
          <mxGeometry x="55" y="80" width="80" height="37" as="geometry" />
        </mxCell>
        <mxCell id="2b4e8129b02d487f-11" value="" style="ellipse;whiteSpace=wrap;html=1;rounded=0;shadow=0;labelBackgroundColor=none;strokeWidth=2;fontFamily=Verdana;fontSize=8;align=center;" parent="2b4e8129b02d487f-2" vertex="1">
          <mxGeometry x="630" y="29.5" width="30" height="30" as="geometry" />
        </mxCell>
        <mxCell id="Rq8yyQeP4w4pOeJSHKfv-75" value="" style="edgeStyle=orthogonalEdgeStyle;rounded=0;orthogonalLoop=1;jettySize=auto;html=1;" parent="2b4e8129b02d487f-2" source="Rq8yyQeP4w4pOeJSHKfv-28" target="Rq8yyQeP4w4pOeJSHKfv-74" edge="1">
          <mxGeometry relative="1" as="geometry" />
        </mxCell>
        <mxCell id="Rq8yyQeP4w4pOeJSHKfv-28" value="&lt;font style=&quot;font-size: 8.5px;&quot;&gt;Receber notificação&lt;/font&gt;" style="rounded=1;whiteSpace=wrap;html=1;shadow=0;labelBackgroundColor=none;strokeWidth=1;fontFamily=Verdana;fontSize=8;align=center;" parent="2b4e8129b02d487f-2" vertex="1">
          <mxGeometry x="500" y="90" width="70" height="37" as="geometry" />
        </mxCell>
        <mxCell id="Rq8yyQeP4w4pOeJSHKfv-76" style="edgeStyle=orthogonalEdgeStyle;rounded=0;orthogonalLoop=1;jettySize=auto;html=1;exitX=1;exitY=0.5;exitDx=0;exitDy=0;" parent="2b4e8129b02d487f-2" source="Rq8yyQeP4w4pOeJSHKfv-74" target="2b4e8129b02d487f-11" edge="1">
          <mxGeometry relative="1" as="geometry" />
        </mxCell>
        <mxCell id="Rq8yyQeP4w4pOeJSHKfv-74" value="&lt;font style=&quot;font-size: 8.5px;&quot;&gt;Validar&lt;/font&gt;" style="rounded=1;whiteSpace=wrap;html=1;shadow=0;labelBackgroundColor=none;strokeWidth=1;fontFamily=Verdana;fontSize=8;align=center;" parent="2b4e8129b02d487f-2" vertex="1">
          <mxGeometry x="500" y="26.5" width="70" height="37" as="geometry" />
        </mxCell>
        <mxCell id="2b4e8129b02d487f-3" value="&lt;font style=&quot;font-size: 10px;&quot;&gt;Central de Serviços&lt;/font&gt;" style="swimlane;html=1;startSize=20;horizontal=0;" parent="2b4e8129b02d487f-1" vertex="1">
          <mxGeometry y="170" width="680" height="150" as="geometry" />
        </mxCell>
        <mxCell id="Rq8yyQeP4w4pOeJSHKfv-4" style="edgeStyle=orthogonalEdgeStyle;rounded=0;orthogonalLoop=1;jettySize=auto;html=1;entryX=0.5;entryY=0;entryDx=0;entryDy=0;" parent="2b4e8129b02d487f-3" source="Rq8yyQeP4w4pOeJSHKfv-1" target="Rq8yyQeP4w4pOeJSHKfv-2" edge="1">
          <mxGeometry relative="1" as="geometry" />
        </mxCell>
        <mxCell id="Rq8yyQeP4w4pOeJSHKfv-1" value="&lt;font style=&quot;font-size: 8.5px;&quot;&gt;Registrar requisição&lt;/font&gt;" style="rounded=1;whiteSpace=wrap;html=1;shadow=0;labelBackgroundColor=none;strokeWidth=1;fontFamily=Verdana;fontSize=8;align=center;" parent="2b4e8129b02d487f-3" vertex="1">
          <mxGeometry x="60" y="13.5" width="70" height="37" as="geometry" />
        </mxCell>
        <mxCell id="Rq8yyQeP4w4pOeJSHKfv-62" style="edgeStyle=orthogonalEdgeStyle;rounded=0;orthogonalLoop=1;jettySize=auto;html=1;exitX=1;exitY=0.5;exitDx=0;exitDy=0;entryX=0;entryY=0.5;entryDx=0;entryDy=0;" parent="2b4e8129b02d487f-3" source="Rq8yyQeP4w4pOeJSHKfv-2" target="Rq8yyQeP4w4pOeJSHKfv-60" edge="1">
          <mxGeometry relative="1" as="geometry" />
        </mxCell>
        <mxCell id="Rq8yyQeP4w4pOeJSHKfv-2" value="&lt;font style=&quot;font-size: 8.5px;&quot;&gt;Classificar&lt;br&gt;&lt;/font&gt;" style="rounded=1;whiteSpace=wrap;html=1;shadow=0;labelBackgroundColor=none;strokeWidth=1;fontFamily=Verdana;fontSize=8;align=center;" parent="2b4e8129b02d487f-3" vertex="1">
          <mxGeometry x="45" y="78.5" width="100" height="37" as="geometry" />
        </mxCell>
        <mxCell id="Rq8yyQeP4w4pOeJSHKfv-66" style="edgeStyle=orthogonalEdgeStyle;rounded=0;orthogonalLoop=1;jettySize=auto;html=1;exitX=1;exitY=0.5;exitDx=0;exitDy=0;" parent="2b4e8129b02d487f-3" source="Rq8yyQeP4w4pOeJSHKfv-5" target="Rq8yyQeP4w4pOeJSHKfv-24" edge="1">
          <mxGeometry relative="1" as="geometry" />
        </mxCell>
        <mxCell id="Rq8yyQeP4w4pOeJSHKfv-5" value="&lt;font style=&quot;font-size: 8.5px;&quot;&gt;Executar procedimento&lt;/font&gt;" style="rounded=1;whiteSpace=wrap;html=1;shadow=0;labelBackgroundColor=none;strokeWidth=1;fontFamily=Verdana;fontSize=8;align=center;" parent="2b4e8129b02d487f-3" vertex="1">
          <mxGeometry x="370" y="78" width="100" height="37" as="geometry" />
        </mxCell>
        <mxCell id="Rq8yyQeP4w4pOeJSHKfv-7" value="" style="shape=cylinder3;whiteSpace=wrap;html=1;boundedLbl=1;backgroundOutline=1;size=6.166666666666686;" parent="2b4e8129b02d487f-3" vertex="1">
          <mxGeometry x="400" y="24" width="30" height="40" as="geometry" />
        </mxCell>
        <mxCell id="Rq8yyQeP4w4pOeJSHKfv-24" value="&lt;font style=&quot;font-size: 8.5px;&quot;&gt;Fechar&amp;nbsp;&lt;/font&gt;" style="rounded=1;whiteSpace=wrap;html=1;shadow=0;labelBackgroundColor=none;strokeWidth=1;fontFamily=Verdana;fontSize=8;align=center;" parent="2b4e8129b02d487f-3" vertex="1">
          <mxGeometry x="500" y="78" width="70" height="37" as="geometry" />
        </mxCell>
        <mxCell id="Rq8yyQeP4w4pOeJSHKfv-63" style="edgeStyle=orthogonalEdgeStyle;rounded=0;orthogonalLoop=1;jettySize=auto;html=1;exitX=1;exitY=0.5;exitDx=0;exitDy=0;entryX=0;entryY=0.5;entryDx=0;entryDy=0;" parent="2b4e8129b02d487f-3" source="Rq8yyQeP4w4pOeJSHKfv-60" target="Rq8yyQeP4w4pOeJSHKfv-5" edge="1">
          <mxGeometry relative="1" as="geometry" />
        </mxCell>
        <mxCell id="Rq8yyQeP4w4pOeJSHKfv-60" value="&lt;span style=&quot;font-size: 8.5px;&quot;&gt;Autoridade&amp;nbsp;&lt;/span&gt;&lt;div&gt;&lt;span style=&quot;font-size: 8.5px;&quot;&gt;da Central?&lt;/span&gt;&lt;/div&gt;" style="rhombus;whiteSpace=wrap;html=1;fontSize=8;fontFamily=Verdana;rounded=1;shadow=0;labelBackgroundColor=none;strokeWidth=1;arcSize=0;" parent="2b4e8129b02d487f-3" vertex="1">
          <mxGeometry x="210" y="64" width="100" height="65" as="geometry" />
        </mxCell>
        <mxCell id="Rq8yyQeP4w4pOeJSHKfv-65" value="sim" style="text;html=1;align=center;verticalAlign=middle;resizable=0;points=[];autosize=1;strokeColor=none;fillColor=none;" parent="2b4e8129b02d487f-3" vertex="1">
          <mxGeometry x="300" y="68" width="40" height="30" as="geometry" />
        </mxCell>
        <mxCell id="Rq8yyQeP4w4pOeJSHKfv-33" value="não" style="text;html=1;align=center;verticalAlign=middle;resizable=0;points=[];autosize=1;strokeColor=none;fillColor=none;" parent="2b4e8129b02d487f-3" vertex="1">
          <mxGeometry x="260" y="120" width="40" height="30" as="geometry" />
        </mxCell>
        <mxCell id="sqR3xwITwiQU-rRLglJW-2" style="edgeStyle=orthogonalEdgeStyle;rounded=0;orthogonalLoop=1;jettySize=auto;html=1;exitX=0.89;exitY=-0.054;exitDx=0;exitDy=0;entryX=1;entryY=0.5;entryDx=0;entryDy=0;entryPerimeter=0;exitPerimeter=0;" parent="2b4e8129b02d487f-3" source="Rq8yyQeP4w4pOeJSHKfv-5" target="Rq8yyQeP4w4pOeJSHKfv-7" edge="1">
          <mxGeometry relative="1" as="geometry" />
        </mxCell>
        <mxCell id="sqR3xwITwiQU-rRLglJW-3" style="edgeStyle=orthogonalEdgeStyle;rounded=0;orthogonalLoop=1;jettySize=auto;html=1;exitX=0;exitY=0.5;exitDx=0;exitDy=0;exitPerimeter=0;entryX=0.14;entryY=0;entryDx=0;entryDy=0;entryPerimeter=0;" parent="2b4e8129b02d487f-3" source="Rq8yyQeP4w4pOeJSHKfv-7" target="Rq8yyQeP4w4pOeJSHKfv-5" edge="1">
          <mxGeometry relative="1" as="geometry" />
        </mxCell>
        <mxCell id="2b4e8129b02d487f-4" value="&lt;font style=&quot;font-size: 10px;&quot;&gt;&lt;span style=&quot;white-space: pre;&quot;&gt;&#x9;&lt;/span&gt;&lt;span style=&quot;white-space: pre;&quot;&gt;&#x9;&lt;/span&gt;&lt;span style=&quot;white-space: pre;&quot;&gt;&#x9;&lt;span style=&quot;white-space: pre;&quot;&gt;&#x9;&lt;span style=&quot;white-space: pre;&quot;&gt;&#x9;&lt;/span&gt;&lt;/span&gt;Nível 2&lt;/span&gt;&lt;/font&gt;" style="swimlane;html=1;startSize=20;horizontal=0;" parent="2b4e8129b02d487f-1" vertex="1">
          <mxGeometry y="320" width="680" height="400" as="geometry" />
        </mxCell>
        <mxCell id="Rq8yyQeP4w4pOeJSHKfv-70" style="edgeStyle=orthogonalEdgeStyle;rounded=0;orthogonalLoop=1;jettySize=auto;html=1;exitX=0.5;exitY=1;exitDx=0;exitDy=0;entryX=0;entryY=0.5;entryDx=0;entryDy=0;" parent="2b4e8129b02d487f-4" source="Rq8yyQeP4w4pOeJSHKfv-31" target="Rq8yyQeP4w4pOeJSHKfv-69" edge="1">
          <mxGeometry relative="1" as="geometry" />
        </mxCell>
        <mxCell id="Rq8yyQeP4w4pOeJSHKfv-31" value="&lt;font style=&quot;font-size: 8.5px;&quot;&gt;Avaliar&lt;/font&gt;" style="rounded=1;whiteSpace=wrap;html=1;shadow=0;labelBackgroundColor=none;strokeWidth=1;fontFamily=Verdana;fontSize=8;align=center;" parent="2b4e8129b02d487f-4" vertex="1">
          <mxGeometry x="225" y="54" width="70" height="37" as="geometry" />
        </mxCell>
        <mxCell id="Rq8yyQeP4w4pOeJSHKfv-34" value="&lt;font style=&quot;font-size: 8.5px;&quot;&gt;Executar solicitação&lt;/font&gt;" style="rounded=1;whiteSpace=wrap;html=1;shadow=0;labelBackgroundColor=none;strokeWidth=1;fontFamily=Verdana;fontSize=8;align=center;" parent="2b4e8129b02d487f-4" vertex="1">
          <mxGeometry x="440" y="30" width="70" height="37" as="geometry" />
        </mxCell>
        <mxCell id="Rq8yyQeP4w4pOeJSHKfv-42" value="&lt;font style=&quot;font-size: 10px;&quot;&gt;Nível 3&lt;/font&gt;" style="swimlane;html=1;startSize=20;horizontal=0;" parent="2b4e8129b02d487f-4" vertex="1">
          <mxGeometry y="190" width="680" height="210" as="geometry" />
        </mxCell>
        <mxCell id="xvyMXE3g8IAIa1BQ-mRL-3" style="edgeStyle=orthogonalEdgeStyle;rounded=0;orthogonalLoop=1;jettySize=auto;html=1;exitX=0;exitY=0.5;exitDx=0;exitDy=0;entryX=0;entryY=0.5;entryDx=0;entryDy=0;" parent="Rq8yyQeP4w4pOeJSHKfv-42" source="Rq8yyQeP4w4pOeJSHKfv-45" target="xvyMXE3g8IAIa1BQ-mRL-2" edge="1">
          <mxGeometry relative="1" as="geometry" />
        </mxCell>
        <mxCell id="Rq8yyQeP4w4pOeJSHKfv-45" value="&lt;font style=&quot;font-size: 8.5px;&quot;&gt;Avaliar&lt;/font&gt;" style="rounded=1;whiteSpace=wrap;html=1;shadow=0;labelBackgroundColor=none;strokeWidth=1;fontFamily=Verdana;fontSize=8;align=center;" parent="Rq8yyQeP4w4pOeJSHKfv-42" vertex="1">
          <mxGeometry x="317" y="30" width="76" height="40" as="geometry" />
        </mxCell>
        <mxCell id="xvyMXE3g8IAIa1BQ-mRL-5" style="edgeStyle=orthogonalEdgeStyle;rounded=0;orthogonalLoop=1;jettySize=auto;html=1;exitX=0.5;exitY=1;exitDx=0;exitDy=0;entryX=0;entryY=0.5;entryDx=0;entryDy=0;" parent="Rq8yyQeP4w4pOeJSHKfv-42" source="xvyMXE3g8IAIa1BQ-mRL-2" target="xvyMXE3g8IAIa1BQ-mRL-4" edge="1">
          <mxGeometry relative="1" as="geometry" />
        </mxCell>
        <mxCell id="xvyMXE3g8IAIa1BQ-mRL-6" style="edgeStyle=orthogonalEdgeStyle;rounded=0;orthogonalLoop=1;jettySize=auto;html=1;exitX=1;exitY=0.5;exitDx=0;exitDy=0;" parent="Rq8yyQeP4w4pOeJSHKfv-42" source="xvyMXE3g8IAIa1BQ-mRL-2" edge="1">
          <mxGeometry relative="1" as="geometry">
            <mxPoint x="370" y="110" as="targetPoint" />
          </mxGeometry>
        </mxCell>
        <mxCell id="xvyMXE3g8IAIa1BQ-mRL-2" value="&lt;font style=&quot;font-size: 8.5px;&quot;&gt;Requisição com&amp;nbsp;&lt;/font&gt;&lt;div&gt;&lt;font style=&quot;font-size: 8.5px;&quot;&gt;dependência de&lt;/font&gt;&lt;/div&gt;&lt;div&gt;&lt;font style=&quot;font-size: 8.5px;&quot;&gt;&amp;nbsp;fornecedor ?&lt;/font&gt;&lt;/div&gt;" style="rhombus;whiteSpace=wrap;html=1;fontSize=8;fontFamily=Verdana;rounded=1;shadow=0;labelBackgroundColor=none;strokeWidth=1;arcSize=0;" parent="Rq8yyQeP4w4pOeJSHKfv-42" vertex="1">
          <mxGeometry x="130" y="70" width="140" height="80" as="geometry" />
        </mxCell>
        <mxCell id="xvyMXE3g8IAIa1BQ-mRL-9" style="edgeStyle=orthogonalEdgeStyle;rounded=0;orthogonalLoop=1;jettySize=auto;html=1;exitX=1;exitY=0.5;exitDx=0;exitDy=0;" parent="Rq8yyQeP4w4pOeJSHKfv-42" source="xvyMXE3g8IAIa1BQ-mRL-4" edge="1">
          <mxGeometry relative="1" as="geometry">
            <mxPoint x="590" y="50" as="targetPoint" />
          </mxGeometry>
        </mxCell>
        <mxCell id="xvyMXE3g8IAIa1BQ-mRL-4" value="&lt;font style=&quot;font-size: 8.5px;&quot;&gt;Executar solicitação&lt;/font&gt;" style="rounded=1;whiteSpace=wrap;html=1;shadow=0;labelBackgroundColor=none;strokeWidth=1;fontFamily=Verdana;fontSize=8;align=center;" parent="Rq8yyQeP4w4pOeJSHKfv-42" vertex="1">
          <mxGeometry x="323" y="151" width="70" height="37" as="geometry" />
        </mxCell>
        <mxCell id="xvyMXE3g8IAIa1BQ-mRL-10" value="não" style="text;html=1;align=center;verticalAlign=middle;resizable=0;points=[];autosize=1;strokeColor=none;fillColor=none;" parent="Rq8yyQeP4w4pOeJSHKfv-42" vertex="1">
          <mxGeometry x="200" y="140" width="40" height="30" as="geometry" />
        </mxCell>
        <mxCell id="xvyMXE3g8IAIa1BQ-mRL-11" value="sim" style="text;html=1;align=center;verticalAlign=middle;resizable=0;points=[];autosize=1;strokeColor=none;fillColor=none;" parent="Rq8yyQeP4w4pOeJSHKfv-42" vertex="1">
          <mxGeometry x="260" y="80" width="40" height="30" as="geometry" />
        </mxCell>
        <mxCell id="PRxgFItniGLSQNE8SaXi-1" value="Subprocesso com fornecedor" style="shape=process;whiteSpace=wrap;html=1;backgroundOutline=1;fontSize=8.5;" vertex="1" parent="Rq8yyQeP4w4pOeJSHKfv-42">
          <mxGeometry x="370" y="90" width="100" height="40" as="geometry" />
        </mxCell>
        <mxCell id="Rq8yyQeP4w4pOeJSHKfv-50" value="não" style="text;html=1;align=center;verticalAlign=middle;resizable=0;points=[];autosize=1;strokeColor=none;fillColor=none;" parent="2b4e8129b02d487f-4" vertex="1">
          <mxGeometry x="350" y="140" width="40" height="30" as="geometry" />
        </mxCell>
        <mxCell id="Rq8yyQeP4w4pOeJSHKfv-57" value="sim" style="text;html=1;align=center;verticalAlign=middle;resizable=0;points=[];autosize=1;strokeColor=none;fillColor=none;" parent="2b4e8129b02d487f-4" vertex="1">
          <mxGeometry x="370" y="24" width="40" height="30" as="geometry" />
        </mxCell>
        <mxCell id="Rq8yyQeP4w4pOeJSHKfv-71" style="edgeStyle=orthogonalEdgeStyle;rounded=0;orthogonalLoop=1;jettySize=auto;html=1;exitX=0.5;exitY=0;exitDx=0;exitDy=0;entryX=0;entryY=0.5;entryDx=0;entryDy=0;" parent="2b4e8129b02d487f-4" source="Rq8yyQeP4w4pOeJSHKfv-69" target="Rq8yyQeP4w4pOeJSHKfv-34" edge="1">
          <mxGeometry relative="1" as="geometry" />
        </mxCell>
        <mxCell id="Rq8yyQeP4w4pOeJSHKfv-72" style="edgeStyle=orthogonalEdgeStyle;rounded=0;orthogonalLoop=1;jettySize=auto;html=1;exitX=0.5;exitY=1;exitDx=0;exitDy=0;" parent="2b4e8129b02d487f-4" source="Rq8yyQeP4w4pOeJSHKfv-69" target="Rq8yyQeP4w4pOeJSHKfv-45" edge="1">
          <mxGeometry relative="1" as="geometry" />
        </mxCell>
        <mxCell id="Rq8yyQeP4w4pOeJSHKfv-69" value="&lt;span style=&quot;font-size: 8.5px;&quot;&gt;Autoridade de N2?&lt;/span&gt;" style="rhombus;whiteSpace=wrap;html=1;fontSize=8;fontFamily=Verdana;rounded=1;shadow=0;labelBackgroundColor=none;strokeWidth=1;arcSize=0;" parent="2b4e8129b02d487f-4" vertex="1">
          <mxGeometry x="300" y="70" width="110" height="70" as="geometry" />
        </mxCell>
        <mxCell id="2b4e8129b02d487f-24" style="edgeStyle=orthogonalEdgeStyle;rounded=0;html=1;labelBackgroundColor=none;startArrow=none;startFill=0;startSize=5;endArrow=classicThin;endFill=1;endSize=5;jettySize=auto;orthogonalLoop=1;strokeWidth=1;fontFamily=Verdana;fontSize=8;entryX=0.5;entryY=0;entryDx=0;entryDy=0;" parent="2b4e8129b02d487f-1" source="2b4e8129b02d487f-6" target="Rq8yyQeP4w4pOeJSHKfv-1" edge="1">
          <mxGeometry relative="1" as="geometry">
            <mxPoint x="130" y="120" as="targetPoint" />
          </mxGeometry>
        </mxCell>
        <mxCell id="Rq8yyQeP4w4pOeJSHKfv-67" style="edgeStyle=orthogonalEdgeStyle;rounded=0;orthogonalLoop=1;jettySize=auto;html=1;exitX=0.5;exitY=0;exitDx=0;exitDy=0;entryX=0.5;entryY=1;entryDx=0;entryDy=0;" parent="2b4e8129b02d487f-1" source="Rq8yyQeP4w4pOeJSHKfv-24" target="Rq8yyQeP4w4pOeJSHKfv-28" edge="1">
          <mxGeometry relative="1" as="geometry" />
        </mxCell>
        <mxCell id="Rq8yyQeP4w4pOeJSHKfv-68" style="edgeStyle=orthogonalEdgeStyle;rounded=0;orthogonalLoop=1;jettySize=auto;html=1;exitX=0.5;exitY=1;exitDx=0;exitDy=0;entryX=0.5;entryY=0;entryDx=0;entryDy=0;" parent="2b4e8129b02d487f-1" source="Rq8yyQeP4w4pOeJSHKfv-60" target="Rq8yyQeP4w4pOeJSHKfv-31" edge="1">
          <mxGeometry relative="1" as="geometry" />
        </mxCell>
        <mxCell id="Rq8yyQeP4w4pOeJSHKfv-73" style="edgeStyle=orthogonalEdgeStyle;rounded=0;orthogonalLoop=1;jettySize=auto;html=1;exitX=1;exitY=0.5;exitDx=0;exitDy=0;entryX=0.5;entryY=1;entryDx=0;entryDy=0;" parent="2b4e8129b02d487f-1" source="Rq8yyQeP4w4pOeJSHKfv-34" target="Rq8yyQeP4w4pOeJSHKfv-24" edge="1">
          <mxGeometry relative="1" as="geometry" />
        </mxCell>
        <mxCell id="Rq8yyQeP4w4pOeJSHKfv-77" style="edgeStyle=orthogonalEdgeStyle;rounded=0;orthogonalLoop=1;jettySize=auto;html=1;exitX=1;exitY=0.5;exitDx=0;exitDy=0;entryX=1;entryY=0.5;entryDx=0;entryDy=0;" parent="2b4e8129b02d487f-1" source="Rq8yyQeP4w4pOeJSHKfv-45" target="Rq8yyQeP4w4pOeJSHKfv-24" edge="1">
          <mxGeometry relative="1" as="geometry" />
        </mxCell>
      </root>
    </mxGraphModel>
  </diagram>
</mxfile>
